<svg width="64" height="64" viewBox="0 0 64 64" fill="none" xmlns="http://www.w3.org/2000/svg">
<g clip-path="url(#clip0_1083_16279)">
<path d="M50.6667 16V10.6667C50.6667 7.83769 49.5429 5.12458 47.5425 3.12419C45.5421 1.12381 42.829 0 40 0L24 0C21.171 0 18.4579 1.12381 16.4575 3.12419C14.4571 5.12458 13.3333 7.83769 13.3333 10.6667V16C9.79841 16.0042 6.40949 17.4104 3.90992 19.9099C1.41035 22.4095 0.00423429 25.7984 0 29.3333L0 42.6667C0.00423429 46.2016 1.41035 49.5905 3.90992 52.0901C6.40949 54.5897 9.79841 55.9958 13.3333 56C13.3333 58.1217 14.1762 60.1566 15.6765 61.6569C17.1768 63.1571 19.2116 64 21.3333 64H42.6667C44.7884 64 46.8232 63.1571 48.3235 61.6569C49.8238 60.1566 50.6667 58.1217 50.6667 56C54.2016 55.9958 57.5905 54.5897 60.0901 52.0901C62.5897 49.5905 63.9958 46.2016 64 42.6667V29.3333C63.9958 25.7984 62.5897 22.4095 60.0901 19.9099C57.5905 17.4104 54.2016 16.0042 50.6667 16ZM18.6667 10.6667C18.6667 9.25218 19.2286 7.89562 20.2288 6.89543C21.229 5.89524 22.5855 5.33333 24 5.33333H40C41.4145 5.33333 42.771 5.89524 43.7712 6.89543C44.7714 7.89562 45.3333 9.25218 45.3333 10.6667V16H18.6667V10.6667ZM45.3333 56C45.3333 56.7072 45.0524 57.3855 44.5523 57.8856C44.0522 58.3857 43.3739 58.6667 42.6667 58.6667H21.3333C20.6261 58.6667 19.9478 58.3857 19.4477 57.8856C18.9476 57.3855 18.6667 56.7072 18.6667 56V45.3333C18.6667 44.6261 18.9476 43.9478 19.4477 43.4477C19.9478 42.9476 20.6261 42.6667 21.3333 42.6667H42.6667C43.3739 42.6667 44.0522 42.9476 44.5523 43.4477C45.0524 43.9478 45.3333 44.6261 45.3333 45.3333V56ZM58.6667 42.6667C58.6667 44.7884 57.8238 46.8232 56.3235 48.3235C54.8232 49.8238 52.7884 50.6667 50.6667 50.6667V45.3333C50.6667 43.2116 49.8238 41.1768 48.3235 39.6765C46.8232 38.1762 44.7884 37.3333 42.6667 37.3333H21.3333C19.2116 37.3333 17.1768 38.1762 15.6765 39.6765C14.1762 41.1768 13.3333 43.2116 13.3333 45.3333V50.6667C11.2116 50.6667 9.17677 49.8238 7.67648 48.3235C6.17619 46.8232 5.33333 44.7884 5.33333 42.6667V29.3333C5.33333 27.2116 6.17619 25.1768 7.67648 23.6765C9.17677 22.1762 11.2116 21.3333 13.3333 21.3333H50.6667C52.7884 21.3333 54.8232 22.1762 56.3235 23.6765C57.8238 25.1768 58.6667 27.2116 58.6667 29.3333V42.6667Z" fill="currentColor"/>
<path d="M48 26.6667H42.6667C41.9594 26.6667 41.2811 26.9476 40.781 27.4477C40.281 27.9478 40 28.6261 40 29.3333C40 30.0406 40.281 30.7189 40.781 31.2189C41.2811 31.719 41.9594 32 42.6667 32H48C48.7072 32 49.3855 31.719 49.8856 31.2189C50.3857 30.7189 50.6667 30.0406 50.6667 29.3333C50.6667 28.6261 50.3857 27.9478 49.8856 27.4477C49.3855 26.9476 48.7072 26.6667 48 26.6667Z" fill="currentColor"/>
</g>
<defs>
<clipPath id="clip0_1083_16279">
<rect width="64" height="64" fill="white"/>
</clipPath>
</defs>
</svg>
